<mxfile host="app.diagrams.net" modified="2022-05-10T15:42:28.885Z" agent="5.0 (Windows NT 10.0; Win64; x64) AppleWebKit/537.36 (KHTML, like Gecko) Chrome/101.0.4951.54 Safari/537.36" etag="4fLnpJpQtp3Z2fnzkroY" version="18.0.2" type="github">
  <diagram id="af-uV_3QWauNEOZmfcSt" name="Page-1">
    <mxGraphModel dx="1038" dy="571" grid="1" gridSize="10" guides="1" tooltips="1" connect="1" arrows="1" fold="1" page="1" pageScale="1" pageWidth="827" pageHeight="1169" math="0" shadow="0">
      <root>
        <mxCell id="0" />
        <mxCell id="1" parent="0" />
        <mxCell id="BUM_Rnv8dKxkjGNJ_xNc-1" value="START" style="ellipse;whiteSpace=wrap;html=1;aspect=fixed;" vertex="1" parent="1">
          <mxGeometry x="230" y="100" width="130" height="130" as="geometry" />
        </mxCell>
        <mxCell id="BUM_Rnv8dKxkjGNJ_xNc-2" value="SCAN_READ_DATA" style="ellipse;whiteSpace=wrap;html=1;aspect=fixed;" vertex="1" parent="1">
          <mxGeometry x="480" y="150" width="130" height="130" as="geometry" />
        </mxCell>
        <mxCell id="BUM_Rnv8dKxkjGNJ_xNc-3" value="WAIT" style="ellipse;whiteSpace=wrap;html=1;aspect=fixed;" vertex="1" parent="1">
          <mxGeometry x="350" y="330" width="130" height="130" as="geometry" />
        </mxCell>
        <mxCell id="BUM_Rnv8dKxkjGNJ_xNc-4" value="WRITE_DATA" style="ellipse;whiteSpace=wrap;html=1;aspect=fixed;" vertex="1" parent="1">
          <mxGeometry x="610" y="330" width="130" height="130" as="geometry" />
        </mxCell>
        <mxCell id="BUM_Rnv8dKxkjGNJ_xNc-14" value="" style="curved=1;endArrow=classic;html=1;rounded=0;exitX=1;exitY=0;exitDx=0;exitDy=0;entryX=0.308;entryY=0;entryDx=0;entryDy=0;entryPerimeter=0;" edge="1" parent="1" source="BUM_Rnv8dKxkjGNJ_xNc-1" target="BUM_Rnv8dKxkjGNJ_xNc-2">
          <mxGeometry width="50" height="50" relative="1" as="geometry">
            <mxPoint x="390" y="140" as="sourcePoint" />
            <mxPoint x="440" y="90" as="targetPoint" />
            <Array as="points">
              <mxPoint x="440" y="70" />
            </Array>
          </mxGeometry>
        </mxCell>
        <mxCell id="BUM_Rnv8dKxkjGNJ_xNc-15" value="" style="curved=1;endArrow=classic;html=1;rounded=0;exitX=1;exitY=0;exitDx=0;exitDy=0;" edge="1" parent="1" target="BUM_Rnv8dKxkjGNJ_xNc-4">
          <mxGeometry width="50" height="50" relative="1" as="geometry">
            <mxPoint x="610.0019407771256" y="229.03805922287438" as="sourcePoint" />
            <mxPoint x="789.0799999999999" y="260" as="targetPoint" />
            <Array as="points">
              <mxPoint x="680" y="260" />
            </Array>
          </mxGeometry>
        </mxCell>
        <mxCell id="BUM_Rnv8dKxkjGNJ_xNc-16" value="" style="curved=1;endArrow=classic;html=1;rounded=0;exitX=0.111;exitY=0.802;exitDx=0;exitDy=0;entryX=1;entryY=1;entryDx=0;entryDy=0;exitPerimeter=0;" edge="1" parent="1" source="BUM_Rnv8dKxkjGNJ_xNc-4" target="BUM_Rnv8dKxkjGNJ_xNc-3">
          <mxGeometry width="50" height="50" relative="1" as="geometry">
            <mxPoint x="360.9619407771256" y="139.03805922287438" as="sourcePoint" />
            <mxPoint x="540.04" y="170" as="targetPoint" />
            <Array as="points">
              <mxPoint x="540" y="490" />
            </Array>
          </mxGeometry>
        </mxCell>
        <mxCell id="BUM_Rnv8dKxkjGNJ_xNc-17" value="" style="curved=1;endArrow=classic;html=1;rounded=0;exitX=0.56;exitY=-0.005;exitDx=0;exitDy=0;entryX=0.022;entryY=0.654;entryDx=0;entryDy=0;exitPerimeter=0;entryPerimeter=0;" edge="1" parent="1" source="BUM_Rnv8dKxkjGNJ_xNc-3" target="BUM_Rnv8dKxkjGNJ_xNc-2">
          <mxGeometry width="50" height="50" relative="1" as="geometry">
            <mxPoint x="370.9619407771256" y="149.03805922287438" as="sourcePoint" />
            <mxPoint x="550.04" y="180" as="targetPoint" />
            <Array as="points">
              <mxPoint x="430" y="261" />
            </Array>
          </mxGeometry>
        </mxCell>
        <mxCell id="BUM_Rnv8dKxkjGNJ_xNc-18" value="" style="curved=1;endArrow=classic;html=1;rounded=0;exitX=0.234;exitY=0.082;exitDx=0;exitDy=0;entryX=0.923;entryY=0.846;entryDx=0;entryDy=0;exitPerimeter=0;entryPerimeter=0;" edge="1" parent="1" source="BUM_Rnv8dKxkjGNJ_xNc-4" target="BUM_Rnv8dKxkjGNJ_xNc-2">
          <mxGeometry width="50" height="50" relative="1" as="geometry">
            <mxPoint x="380.9619407771256" y="159.03805922287438" as="sourcePoint" />
            <mxPoint x="560.04" y="190" as="targetPoint" />
            <Array as="points">
              <mxPoint x="600" y="320" />
            </Array>
          </mxGeometry>
        </mxCell>
        <mxCell id="BUM_Rnv8dKxkjGNJ_xNc-19" value="comprueba_setup_done / leer" style="text;html=1;align=center;verticalAlign=middle;resizable=0;points=[];autosize=1;strokeColor=none;fillColor=none;fontSize=14;" vertex="1" parent="1">
          <mxGeometry x="335" y="70" width="200" height="20" as="geometry" />
        </mxCell>
        <mxCell id="BUM_Rnv8dKxkjGNJ_xNc-21" value="comprueba_datos_leidos / escribir" style="text;html=1;align=center;verticalAlign=middle;resizable=0;points=[];autosize=1;strokeColor=none;fillColor=none;fontSize=14;" vertex="1" parent="1">
          <mxGeometry x="650" y="230" width="230" height="20" as="geometry" />
        </mxCell>
        <mxCell id="BUM_Rnv8dKxkjGNJ_xNc-23" value="comprueba_todos_revisados / resetear" style="text;html=1;align=center;verticalAlign=middle;resizable=0;points=[];autosize=1;strokeColor=none;fillColor=none;fontSize=14;" vertex="1" parent="1">
          <mxGeometry x="420" y="480" width="260" height="20" as="geometry" />
        </mxCell>
        <mxCell id="BUM_Rnv8dKxkjGNJ_xNc-25" value="comprueba_timer / leer" style="text;html=1;align=center;verticalAlign=middle;resizable=0;points=[];autosize=1;strokeColor=none;fillColor=none;fontSize=14;" vertex="1" parent="1">
          <mxGeometry x="270" y="270" width="160" height="20" as="geometry" />
        </mxCell>
        <mxCell id="BUM_Rnv8dKxkjGNJ_xNc-26" value="comprueba_datos_escritos &lt;br&gt;/ leer" style="text;html=1;align=center;verticalAlign=middle;resizable=0;points=[];autosize=1;strokeColor=none;fillColor=none;fontSize=14;" vertex="1" parent="1">
          <mxGeometry x="430" y="290" width="180" height="40" as="geometry" />
        </mxCell>
      </root>
    </mxGraphModel>
  </diagram>
</mxfile>
